<svg width="512" height="512" viewBox="0 0 512 512" fill="none" xmlns="http://www.w3.org/2000/svg">
<rect width="512" height="512" fill="#32334A"/>
<path d="M238.918 148.045H163.574C104.163 148.045 56 196.378 56 256C56 315.622 104.163 363.955 163.574 363.955H238.918C246.543 363.955 252.723 357.774 252.723 350.15C252.723 342.525 246.543 336.345 238.918 336.345H163.574C124.048 336.345 91.212 307.6 84.6901 269.805H252.324C258.733 322.907 301.729 363.955 356.479 363.955H442.195C449.819 363.955 456 357.774 456 350.15C456 342.525 449.819 336.345 442.195 336.345H356.479C312.263 336.345 276.418 300.373 276.418 256C276.418 211.627 312.263 175.655 356.479 175.655H442.195C449.819 175.655 456 169.475 456 161.85C456 154.226 449.819 148.045 442.195 148.045H356.479C301.729 148.045 258.733 189.093 252.324 242.195H84.6901C91.212 204.4 124.048 175.655 163.574 175.655H238.918C246.543 175.655 252.723 169.475 252.723 161.85C252.723 154.226 246.543 148.045 238.918 148.045Z" fill="#E8E8F4"/>
<path d="M380.123 239.222L373.427 209.051L366.731 239.223L339.59 221.941L356.871 249.081L326.701 255.777L356.872 262.473L339.591 289.612L366.73 272.331L373.426 302.502L380.122 272.331L407.262 289.613L389.98 262.472L420.152 255.776L389.981 249.08L407.262 221.94L380.123 239.222Z" fill="#E8E8F4"/>
</svg>
