<svg width="2698" height="359" viewBox="0 0 2698 359" fill="none" xmlns="http://www.w3.org/2000/svg">
<g clip-path="url(#clip0_1251_2205)">
<path d="M182.918 69.025H107.574C48.1626 69.025 0 117.358 0 176.98C0 236.601 48.1626 284.934 107.574 284.934H182.918C190.543 284.934 196.723 278.753 196.723 271.129C196.723 263.505 190.543 257.324 182.918 257.324H107.574C68.0481 257.324 35.212 228.58 28.6901 190.785H196.324C202.733 243.887 245.729 284.934 300.479 284.934H386.195C393.819 284.934 400 278.753 400 271.129C400 263.505 393.819 257.324 386.195 257.324H300.479C256.263 257.324 220.418 221.353 220.418 176.98C220.418 132.607 256.263 96.6351 300.479 96.6351H386.195C393.819 96.6351 400 90.4544 400 82.8301C400 75.2057 393.819 69.025 386.195 69.025H300.479C245.729 69.025 202.733 110.072 196.324 163.175H28.6901C35.212 125.379 68.0481 96.6351 107.574 96.6351H182.918C190.543 96.6351 196.723 90.4544 196.723 82.8301C196.723 75.2057 190.543 69.025 182.918 69.025Z" fill="#32334A"/>
<path d="M324.123 160.201L317.427 130.031L310.731 160.203L283.59 142.92L300.871 170.06L270.701 176.756L300.872 183.452L283.591 210.592L310.73 193.311L317.426 223.482L324.122 193.311L351.262 210.593L333.98 183.452L364.152 176.756L333.981 170.06L351.262 142.92L324.123 160.201Z" fill="#32334A"/>
<path d="M491.425 180.848C491.425 168.73 493.641 158.311 498.075 149.591C502.509 140.872 508.79 134.148 516.918 129.418C525.046 124.689 534.578 122.325 545.515 122.325C556.155 122.325 565.613 124.837 573.89 129.862C582.166 134.739 588.594 141.463 593.176 150.035C597.905 158.606 600.269 168.508 600.269 179.74V186.612H512.041V170.429H576.771C576.328 164.222 574.702 158.828 571.894 154.246C569.086 149.517 565.466 145.897 561.032 143.384C556.599 140.872 551.5 139.616 545.736 139.616C538.79 139.616 532.953 141.167 528.224 144.271C523.494 147.374 519.947 151.956 517.583 158.015C515.218 163.926 514.036 171.537 514.036 180.848C514.036 194.149 516.844 204.272 522.46 211.218C528.076 218.016 536.278 221.415 547.066 221.415C555.195 221.415 561.697 219.642 566.574 216.095C571.451 212.4 574.481 207.45 575.663 201.243H598.939C596.575 213.804 591.033 223.411 582.313 230.061C573.594 236.564 561.771 239.815 546.845 239.815C535.613 239.815 525.785 237.45 517.361 232.721C509.085 227.844 502.656 221.046 498.075 212.327C493.641 203.459 491.425 192.967 491.425 180.848ZM610.688 124.541H633.965L666.108 215.43L697.587 124.541H721.307L678.522 238.041H653.473L610.688 124.541ZM731.725 180.848C731.725 168.73 733.942 158.311 738.376 149.591C742.809 140.872 749.09 134.148 757.219 129.418C765.347 124.689 774.879 122.325 785.815 122.325C796.456 122.325 805.914 124.837 814.19 129.862C822.466 134.739 828.895 141.463 833.476 150.035C838.206 158.606 840.57 168.508 840.57 179.74V186.612H752.342V170.429H817.072C816.629 164.222 815.003 158.828 812.195 154.246C809.387 149.517 805.766 145.897 801.333 143.384C796.899 140.872 791.801 139.616 786.037 139.616C779.091 139.616 773.253 141.167 768.524 144.271C763.795 147.374 760.248 151.956 757.884 158.015C755.519 163.926 754.337 171.537 754.337 180.848C754.337 194.149 757.145 204.272 762.761 211.218C768.377 218.016 776.579 221.415 787.367 221.415C795.495 221.415 801.998 219.642 806.875 216.095C811.752 212.4 814.781 207.45 815.964 201.243H839.24C836.876 213.804 831.334 223.411 822.614 230.061C813.895 236.564 802.072 239.815 787.145 239.815C775.914 239.815 766.086 237.45 757.662 232.721C749.386 227.844 742.957 221.046 738.376 212.327C733.942 203.459 731.725 192.967 731.725 180.848ZM920.597 145.158H914.833C909.069 145.158 903.749 146.34 898.872 148.704C894.143 150.921 890.374 154.099 887.566 158.237C884.906 162.227 883.576 166.882 883.576 172.203L876.039 170.872C876.039 160.823 877.96 152.177 881.803 144.936C885.645 137.694 890.522 132.152 896.433 128.31C902.493 124.32 908.552 122.325 914.611 122.325H920.597V145.158ZM861.408 124.541H883.576V238.041H861.408V124.541ZM942.099 255.111H957.395C962.42 255.111 966.41 254.076 969.366 252.007C972.47 250.086 974.908 246.687 976.682 241.81L978.898 235.825L935.671 124.541H958.947L991.977 213.213L1024.12 124.541H1047.84L1002.84 244.027C1000.03 251.564 996.854 257.623 993.307 262.204C989.908 266.786 985.844 270.111 981.115 272.18C976.386 274.249 970.622 275.284 963.824 275.284H942.099V255.111ZM1062.03 124.541H1085.3L1107.25 213.657L1132.97 124.541H1158.02L1183.29 213.657L1206.12 124.541H1229.62L1195.04 238.041H1170.43L1145.38 148.926L1120.11 238.041H1094.84L1062.03 124.541ZM1326.27 170.872C1326.27 160.675 1323.76 153.36 1318.73 148.926C1313.71 144.345 1306.98 142.054 1298.56 142.054C1293.24 142.054 1288.44 143.236 1284.15 145.601C1279.87 147.818 1276.47 150.995 1273.95 155.133C1271.59 159.271 1270.41 164 1270.41 169.321L1262.87 167.991C1263.02 158.237 1265.23 149.961 1269.52 143.162C1273.95 136.217 1279.42 130.896 1285.92 127.202C1292.58 123.507 1299.37 121.66 1306.32 121.66C1314.45 121.66 1321.62 123.359 1327.82 126.758C1334.18 130.157 1339.13 135.182 1342.67 141.832C1346.37 148.483 1348.22 156.611 1348.22 166.217V238.041H1326.27V170.872ZM1248.24 79.097H1270.41V238.041H1248.24V79.097ZM1369.05 180.848C1369.05 168.73 1371.27 158.311 1375.7 149.591C1380.14 140.872 1386.42 134.148 1394.55 129.418C1402.68 124.689 1412.21 122.325 1423.14 122.325C1433.79 122.325 1443.24 124.837 1451.52 129.862C1459.8 134.739 1466.22 141.463 1470.81 150.035C1475.53 158.606 1477.9 168.508 1477.9 179.74V186.612H1389.67V170.429H1454.4C1453.96 164.222 1452.33 158.828 1449.52 154.246C1446.72 149.517 1443.1 145.897 1438.66 143.384C1434.23 140.872 1429.13 139.616 1423.37 139.616C1416.42 139.616 1410.58 141.167 1405.85 144.271C1401.12 147.374 1397.58 151.956 1395.21 158.015C1392.85 163.926 1391.67 171.537 1391.67 180.848C1391.67 194.149 1394.47 204.272 1400.09 211.218C1405.71 218.016 1413.91 221.415 1424.7 221.415C1432.82 221.415 1439.33 219.642 1444.2 216.095C1449.08 212.4 1452.11 207.45 1453.29 201.243H1476.57C1474.2 213.804 1468.66 223.411 1459.94 230.061C1451.22 236.564 1439.4 239.815 1424.47 239.815C1413.24 239.815 1403.41 237.45 1394.99 232.721C1386.72 227.844 1380.29 221.046 1375.7 212.327C1371.27 203.459 1369.05 192.967 1369.05 180.848ZM1557.93 145.158H1552.16C1546.4 145.158 1541.08 146.34 1536.2 148.704C1531.47 150.921 1527.7 154.099 1524.9 158.237C1522.24 162.227 1520.91 166.882 1520.91 172.203L1513.37 170.872C1513.37 160.823 1515.29 152.177 1519.13 144.936C1522.97 137.694 1527.85 132.152 1533.76 128.31C1539.82 124.32 1545.88 122.325 1551.94 122.325H1557.93V145.158ZM1498.74 124.541H1520.91V238.041H1498.74V124.541ZM1570.78 180.848C1570.78 168.73 1573 158.311 1577.43 149.591C1581.87 140.872 1588.15 134.148 1596.28 129.418C1604.4 124.689 1613.94 122.325 1624.87 122.325C1635.51 122.325 1644.97 124.837 1653.25 129.862C1661.52 134.739 1667.95 141.463 1672.53 150.035C1677.26 158.606 1679.63 168.508 1679.63 179.74V186.612H1591.4V170.429H1656.13C1655.69 164.222 1654.06 158.828 1651.25 154.246C1648.44 149.517 1644.82 145.897 1640.39 143.384C1635.96 140.872 1630.86 139.616 1625.09 139.616C1618.15 139.616 1612.31 141.167 1607.58 144.271C1602.85 147.374 1599.31 151.956 1596.94 158.015C1594.58 163.926 1593.39 171.537 1593.39 180.848C1593.39 194.149 1596.2 204.272 1601.82 211.218C1607.43 218.016 1615.64 221.415 1626.42 221.415C1634.55 221.415 1641.06 219.642 1645.93 216.095C1650.81 212.4 1653.84 207.45 1655.02 201.243H1678.3C1675.93 213.804 1670.39 223.411 1661.67 230.061C1652.95 236.564 1641.13 239.815 1626.2 239.815C1614.97 239.815 1605.14 237.45 1596.72 232.721C1588.44 227.844 1582.01 221.046 1577.43 212.327C1573 203.459 1570.78 192.967 1570.78 180.848ZM1743.47 180.848C1743.47 168.877 1745.76 158.458 1750.34 149.591C1754.93 140.724 1761.28 133.852 1769.41 128.975C1777.68 124.098 1787.22 121.66 1798 121.66C1807.91 121.66 1816.7 123.581 1824.38 127.423C1832.07 131.118 1838.28 136.438 1843.01 143.384C1847.73 150.182 1850.4 158.311 1850.99 167.769H1828.37C1828.08 159.345 1825.2 152.842 1819.73 148.261C1814.26 143.532 1807.02 141.167 1798 141.167C1791.21 141.167 1785.44 142.719 1780.71 145.823C1775.98 148.926 1772.36 153.434 1769.85 159.345C1767.34 165.257 1766.08 172.424 1766.08 180.848C1766.08 193.558 1768.89 203.459 1774.51 210.553C1780.12 217.499 1787.96 220.972 1798 220.972C1806.87 220.972 1814.04 218.829 1819.51 214.543C1824.98 210.258 1827.93 204.198 1828.37 196.366H1850.99C1849.66 210.11 1844.19 220.898 1834.58 228.731C1824.98 236.564 1812.78 240.48 1798 240.48C1787.22 240.48 1777.68 238.041 1769.41 233.164C1761.28 228.14 1754.93 221.194 1750.34 212.327C1745.76 203.312 1743.47 192.819 1743.47 180.848ZM1869.39 180.848C1869.39 168.877 1871.68 158.458 1876.26 149.591C1880.84 140.724 1887.19 133.852 1895.32 128.975C1903.6 124.098 1913.2 121.66 1924.14 121.66C1935.08 121.66 1944.61 124.098 1952.74 128.975C1961.01 133.852 1967.37 140.724 1971.8 149.591C1976.38 158.458 1978.67 168.877 1978.67 180.848C1978.67 192.819 1976.38 203.312 1971.8 212.327C1967.37 221.194 1961.01 228.14 1952.74 233.164C1944.61 238.041 1935.08 240.48 1924.14 240.48C1913.2 240.48 1903.6 238.041 1895.32 233.164C1887.19 228.14 1880.84 221.194 1876.26 212.327C1871.68 203.312 1869.39 192.819 1869.39 180.848ZM1956.06 180.848C1956.06 168.286 1953.25 158.532 1947.64 151.586C1942.17 144.64 1934.34 141.167 1924.14 141.167C1917.34 141.167 1911.5 142.719 1906.63 145.823C1901.9 148.926 1898.28 153.434 1895.77 159.345C1893.25 165.257 1892 172.424 1892 180.848C1892 193.558 1894.8 203.459 1900.42 210.553C1906.18 217.499 1914.09 220.972 1924.14 220.972C1930.94 220.972 1936.7 219.42 1941.43 216.317C1946.16 213.065 1949.78 208.484 1952.29 202.573C1954.81 196.513 1956.06 189.272 1956.06 180.848ZM2146.26 170.872C2146.26 160.675 2143.97 153.36 2139.39 148.926C2134.96 144.345 2128.82 142.054 2120.99 142.054C2116.12 142.054 2111.68 143.236 2107.69 145.601C2103.7 147.818 2100.52 150.995 2098.16 155.133C2095.94 159.271 2094.83 164 2094.83 169.321L2087.08 167.991C2087.08 158.237 2089.14 149.961 2093.28 143.162C2097.57 136.217 2102.89 130.896 2109.24 127.202C2115.6 123.507 2122.1 121.66 2128.75 121.66C2136.29 121.66 2143.01 123.359 2148.92 126.758C2154.98 130.157 2159.71 135.182 2163.11 141.832C2166.51 148.483 2168.21 156.611 2168.21 166.217V238.041H2146.26V170.872ZM2072.89 170.872C2072.89 160.675 2070.6 153.36 2066.02 148.926C2061.58 144.345 2055.45 142.054 2047.62 142.054C2042.74 142.054 2038.31 143.236 2034.32 145.601C2030.47 147.818 2027.37 150.995 2025 155.133C2022.79 159.271 2021.68 164 2021.68 169.321L2014.14 167.991C2014.14 158.237 2016.21 149.961 2020.35 143.162C2024.49 136.217 2029.73 130.896 2036.09 127.202C2042.44 123.507 2048.87 121.66 2055.37 121.66C2062.91 121.66 2069.64 123.359 2075.55 126.758C2081.61 130.157 2086.34 135.182 2089.74 141.832C2093.13 148.483 2094.83 156.611 2094.83 166.217V238.041H2072.89V170.872ZM1999.51 124.541H2021.68V238.041H1999.51V124.541ZM2191.26 124.541H2213.43V275.062H2191.26V124.541ZM2205.01 180.848C2205.01 171.833 2206.12 163.705 2208.33 156.463C2210.55 149.222 2213.65 143.015 2217.64 137.842C2221.78 132.67 2226.66 128.679 2232.28 125.871C2237.89 123.064 2244.17 121.66 2251.12 121.66C2261.02 121.66 2269.59 124.098 2276.83 128.975C2284.07 133.852 2289.69 140.724 2293.68 149.591C2297.82 158.458 2299.89 168.877 2299.89 180.848C2299.89 192.819 2297.82 203.312 2293.68 212.327C2289.69 221.194 2284.07 228.14 2276.83 233.164C2269.59 238.041 2261.02 240.48 2251.12 240.48C2241.96 240.48 2233.9 238.041 2226.95 233.164C2220.01 228.14 2214.61 221.194 2210.77 212.327C2206.93 203.312 2205.01 192.819 2205.01 180.848ZM2277.28 180.848C2277.28 168.286 2274.47 158.532 2268.85 151.586C2263.38 144.64 2255.55 141.167 2245.35 141.167C2238.56 141.167 2232.79 142.719 2228.06 145.823C2223.33 148.926 2219.71 153.434 2217.2 159.345C2214.69 165.257 2213.43 172.424 2213.43 180.848C2213.43 193.558 2216.24 203.459 2221.86 210.553C2227.47 217.499 2235.3 220.972 2245.35 220.972C2252.15 220.972 2257.92 219.42 2262.65 216.317C2267.37 213.065 2271 208.484 2273.51 202.573C2276.02 196.513 2277.28 189.272 2277.28 180.848ZM2342.89 191.045C2342.89 201.39 2345.26 208.927 2349.99 213.657C2354.86 218.238 2361.29 220.529 2369.27 220.529C2374.59 220.529 2379.25 219.346 2383.24 216.982C2387.38 214.469 2390.63 211.144 2392.99 207.006C2395.51 202.72 2396.76 197.843 2396.76 192.375L2404.08 193.705C2404.08 203.459 2401.93 211.883 2397.65 218.977C2393.51 226.071 2388.12 231.539 2381.47 235.381C2374.96 239.076 2368.39 240.923 2361.74 240.923C2353.76 240.923 2346.66 239.224 2340.45 235.825C2334.4 232.278 2329.59 227.179 2326.05 220.529C2322.5 213.731 2320.73 205.454 2320.73 195.701V124.541H2342.89V191.045ZM2418.71 238.041H2396.76V124.541H2418.71V238.041ZM2437.33 124.541H2499.18V142.941H2437.33V124.541ZM2499.18 218.755V238.041H2488.09C2482.48 238.041 2477.31 237.007 2472.58 234.938C2467.85 232.721 2464.08 229.322 2461.27 224.741C2458.46 220.159 2457.06 214.174 2457.06 206.785V95.058H2479V203.903C2479 209.666 2480.04 213.583 2482.11 215.652C2484.33 217.721 2487.13 218.755 2490.53 218.755H2499.18ZM2512.48 180.848C2512.48 168.73 2514.7 158.311 2519.13 149.591C2523.56 140.872 2529.84 134.148 2537.97 129.418C2546.1 124.689 2555.63 122.325 2566.57 122.325C2577.21 122.325 2586.67 124.837 2594.94 129.862C2603.22 134.739 2609.65 141.463 2614.23 150.035C2618.96 158.606 2621.32 168.508 2621.32 179.74V186.612H2533.09V170.429H2597.83C2597.38 164.222 2595.76 158.828 2592.95 154.246C2590.14 149.517 2586.52 145.897 2582.09 143.384C2577.65 140.872 2572.55 139.616 2566.79 139.616C2559.84 139.616 2554.01 141.167 2549.28 144.271C2544.55 147.374 2541 151.956 2538.64 158.015C2536.27 163.926 2535.09 171.537 2535.09 180.848C2535.09 194.149 2537.9 204.272 2543.51 211.218C2549.13 218.016 2557.33 221.415 2568.12 221.415C2576.25 221.415 2582.75 219.642 2587.63 216.095C2592.5 212.4 2595.53 207.45 2596.72 201.243H2619.99C2617.63 213.804 2612.09 223.411 2603.37 230.061C2594.65 236.564 2582.82 239.815 2567.9 239.815C2556.67 239.815 2546.84 237.45 2538.41 232.721C2530.14 227.844 2523.71 221.046 2519.13 212.327C2514.7 203.459 2512.48 192.967 2512.48 180.848ZM2701.35 145.158H2695.59C2689.82 145.158 2684.5 146.34 2679.62 148.704C2674.9 150.921 2671.13 154.099 2668.32 158.237C2665.66 162.227 2664.33 166.882 2664.33 172.203L2656.79 170.872C2656.79 160.823 2658.71 152.177 2662.56 144.936C2666.4 137.694 2671.27 132.152 2677.19 128.31C2683.25 124.32 2689.3 122.325 2695.36 122.325H2701.35V145.158ZM2642.16 124.541H2664.33V238.041H2642.16V124.541Z" fill="#32334A"/>
</g>
<defs>
<clipPath id="clip0_1251_2205">
<rect width="2698" height="358" fill="white" transform="translate(0 0.979614)"/>
</clipPath>
</defs>
</svg>
