<svg width="2698" height="358" viewBox="0 0 2698 358" fill="none" xmlns="http://www.w3.org/2000/svg">
<g clip-path="url(#clip0_132_1022)">
<path d="M182.918 68.0454H107.574C48.1626 68.0454 0 116.378 0 176C0 235.622 48.1626 283.955 107.574 283.955H182.918C190.543 283.955 196.723 277.774 196.723 270.15C196.723 262.525 190.543 256.345 182.918 256.345H107.574C68.0481 256.345 35.212 227.6 28.6901 189.805H196.324C202.733 242.907 245.729 283.955 300.479 283.955H386.195C393.819 283.955 400 277.774 400 270.15C400 262.525 393.819 256.345 386.195 256.345H300.479C256.263 256.345 220.418 220.373 220.418 176C220.418 131.627 256.263 95.6555 300.479 95.6555H386.195C393.819 95.6555 400 89.4747 400 81.8504C400 74.2261 393.819 68.0454 386.195 68.0454H300.479C245.729 68.0454 202.733 109.093 196.324 162.195H28.6901C35.212 124.4 68.0481 95.6555 107.574 95.6555H182.918C190.543 95.6555 196.723 89.4747 196.723 81.8504C196.723 74.2261 190.543 68.0454 182.918 68.0454Z" fill="currentColor"/>
<path d="M324.123 159.222L317.427 129.051L310.731 159.223L283.59 141.941L300.871 169.081L270.701 175.777L300.872 182.473L283.591 209.612L310.73 192.331L317.426 222.502L324.122 192.331L351.262 209.613L333.98 182.472L364.152 175.776L333.981 169.08L351.262 141.94L324.123 159.222Z" fill="currentColor"/>
<path d="M491.425 179.868C491.425 167.75 493.641 157.331 498.075 148.612C502.509 139.892 508.79 133.168 516.918 128.439C525.046 123.71 534.578 121.345 545.515 121.345C556.155 121.345 565.613 123.857 573.89 128.882C582.166 133.759 588.594 140.483 593.176 149.055C597.905 157.627 600.269 167.528 600.269 178.76V185.632H512.041V169.449H576.771C576.328 163.242 574.702 157.848 571.894 153.267C569.086 148.538 565.466 144.917 561.032 142.405C556.599 139.892 551.5 138.636 545.736 138.636C538.79 138.636 532.953 140.188 528.224 143.291C523.494 146.395 519.947 150.976 517.583 157.035C515.218 162.947 514.036 170.558 514.036 179.868C514.036 193.169 516.844 203.293 522.46 210.238C528.076 217.037 536.278 220.436 547.066 220.436C555.195 220.436 561.697 218.662 566.574 215.115C571.451 211.421 574.481 206.47 575.663 200.263H598.939C596.575 212.825 591.033 222.431 582.313 229.081C573.594 235.584 561.771 238.835 546.845 238.835C535.613 238.835 525.785 236.471 517.361 231.741C509.085 226.864 502.656 220.066 498.075 211.347C493.641 202.48 491.425 191.987 491.425 179.868ZM610.688 123.562H633.965L666.108 214.45L697.587 123.562H721.307L678.522 237.062H653.473L610.688 123.562ZM731.725 179.868C731.725 167.75 733.942 157.331 738.376 148.612C742.809 139.892 749.09 133.168 757.219 128.439C765.347 123.71 774.879 121.345 785.815 121.345C796.456 121.345 805.914 123.857 814.19 128.882C822.466 133.759 828.895 140.483 833.476 149.055C838.206 157.627 840.57 167.528 840.57 178.76V185.632H752.342V169.449H817.072C816.629 163.242 815.003 157.848 812.195 153.267C809.387 148.538 805.766 144.917 801.333 142.405C796.899 139.892 791.801 138.636 786.037 138.636C779.091 138.636 773.253 140.188 768.524 143.291C763.795 146.395 760.248 150.976 757.884 157.035C755.519 162.947 754.337 170.558 754.337 179.868C754.337 193.169 757.145 203.293 762.761 210.238C768.377 217.037 776.579 220.436 787.367 220.436C795.495 220.436 801.998 218.662 806.875 215.115C811.752 211.421 814.781 206.47 815.964 200.263H839.24C836.876 212.825 831.334 222.431 822.614 229.081C813.895 235.584 802.072 238.835 787.145 238.835C775.914 238.835 766.086 236.471 757.662 231.741C749.386 226.864 742.957 220.066 738.376 211.347C733.942 202.48 731.725 191.987 731.725 179.868ZM920.597 144.178H914.833C909.069 144.178 903.749 145.36 898.872 147.725C894.143 149.942 890.374 153.119 887.566 157.257C884.906 161.247 883.576 165.903 883.576 171.223L876.039 169.893C876.039 159.843 877.96 151.198 881.803 143.956C885.645 136.715 890.522 131.173 896.433 127.33C902.493 123.34 908.552 121.345 914.611 121.345H920.597V144.178ZM861.408 123.562H883.576V237.062H861.408V123.562ZM942.099 254.131H957.395C962.42 254.131 966.41 253.097 969.366 251.028C972.47 249.106 974.908 245.707 976.682 240.83L978.898 234.845L935.671 123.562H958.947L991.977 212.234L1024.12 123.562H1047.84L1002.84 243.047C1000.03 250.584 996.854 256.643 993.307 261.225C989.908 265.806 985.844 269.131 981.115 271.2C976.386 273.269 970.622 274.304 963.824 274.304H942.099V254.131ZM1062.03 123.562H1085.3L1107.25 212.677L1132.97 123.562H1158.02L1183.29 212.677L1206.12 123.562H1229.62L1195.04 237.062H1170.43L1145.38 147.947L1120.11 237.062H1094.84L1062.03 123.562ZM1326.27 169.893C1326.27 159.696 1323.76 152.38 1318.73 147.947C1313.71 143.365 1306.98 141.074 1298.56 141.074C1293.24 141.074 1288.44 142.257 1284.15 144.621C1279.87 146.838 1276.47 150.016 1273.95 154.154C1271.59 158.292 1270.41 163.021 1270.41 168.341L1262.87 167.011C1263.02 157.257 1265.23 148.981 1269.52 142.183C1273.95 135.237 1279.42 129.917 1285.92 126.222C1292.58 122.527 1299.37 120.68 1306.32 120.68C1314.45 120.68 1321.62 122.379 1327.82 125.779C1334.18 129.178 1339.13 134.202 1342.67 140.853C1346.37 147.503 1348.22 155.631 1348.22 165.238V237.062H1326.27V169.893ZM1248.24 78.1174H1270.41V237.062H1248.24V78.1174ZM1369.05 179.868C1369.05 167.75 1371.27 157.331 1375.7 148.612C1380.14 139.892 1386.42 133.168 1394.55 128.439C1402.68 123.71 1412.21 121.345 1423.14 121.345C1433.79 121.345 1443.24 123.857 1451.52 128.882C1459.8 133.759 1466.22 140.483 1470.81 149.055C1475.53 157.627 1477.9 167.528 1477.9 178.76V185.632H1389.67V169.449H1454.4C1453.96 163.242 1452.33 157.848 1449.52 153.267C1446.72 148.538 1443.1 144.917 1438.66 142.405C1434.23 139.892 1429.13 138.636 1423.37 138.636C1416.42 138.636 1410.58 140.188 1405.85 143.291C1401.12 146.395 1397.58 150.976 1395.21 157.035C1392.85 162.947 1391.67 170.558 1391.67 179.868C1391.67 193.169 1394.47 203.293 1400.09 210.238C1405.71 217.037 1413.91 220.436 1424.7 220.436C1432.82 220.436 1439.33 218.662 1444.2 215.115C1449.08 211.421 1452.11 206.47 1453.29 200.263H1476.57C1474.2 212.825 1468.66 222.431 1459.94 229.081C1451.22 235.584 1439.4 238.835 1424.47 238.835C1413.24 238.835 1403.41 236.471 1394.99 231.741C1386.72 226.864 1380.29 220.066 1375.7 211.347C1371.27 202.48 1369.05 191.987 1369.05 179.868ZM1557.93 144.178H1552.16C1546.4 144.178 1541.08 145.36 1536.2 147.725C1531.47 149.942 1527.7 153.119 1524.9 157.257C1522.24 161.247 1520.91 165.903 1520.91 171.223L1513.37 169.893C1513.37 159.843 1515.29 151.198 1519.13 143.956C1522.97 136.715 1527.85 131.173 1533.76 127.33C1539.82 123.34 1545.88 121.345 1551.94 121.345H1557.93V144.178ZM1498.74 123.562H1520.91V237.062H1498.74V123.562ZM1570.78 179.868C1570.78 167.75 1573 157.331 1577.43 148.612C1581.87 139.892 1588.15 133.168 1596.28 128.439C1604.4 123.71 1613.94 121.345 1624.87 121.345C1635.51 121.345 1644.97 123.857 1653.25 128.882C1661.52 133.759 1667.95 140.483 1672.53 149.055C1677.26 157.627 1679.63 167.528 1679.63 178.76V185.632H1591.4V169.449H1656.13C1655.69 163.242 1654.06 157.848 1651.25 153.267C1648.44 148.538 1644.82 144.917 1640.39 142.405C1635.96 139.892 1630.86 138.636 1625.09 138.636C1618.15 138.636 1612.31 140.188 1607.58 143.291C1602.85 146.395 1599.31 150.976 1596.94 157.035C1594.58 162.947 1593.39 170.558 1593.39 179.868C1593.39 193.169 1596.2 203.293 1601.82 210.238C1607.43 217.037 1615.64 220.436 1626.42 220.436C1634.55 220.436 1641.06 218.662 1645.93 215.115C1650.81 211.421 1653.84 206.47 1655.02 200.263H1678.3C1675.93 212.825 1670.39 222.431 1661.67 229.081C1652.95 235.584 1641.13 238.835 1626.2 238.835C1614.97 238.835 1605.14 236.471 1596.72 231.741C1588.44 226.864 1582.01 220.066 1577.43 211.347C1573 202.48 1570.78 191.987 1570.78 179.868ZM1743.47 179.868C1743.47 167.898 1745.76 157.479 1750.34 148.612C1754.93 139.744 1761.28 132.872 1769.41 127.995C1777.68 123.118 1787.22 120.68 1798 120.68C1807.91 120.68 1816.7 122.601 1824.38 126.444C1832.07 130.138 1838.28 135.459 1843.01 142.405C1847.73 149.203 1850.4 157.331 1850.99 166.789H1828.37C1828.08 158.365 1825.2 151.863 1819.73 147.281C1814.26 142.552 1807.02 140.188 1798 140.188C1791.21 140.188 1785.44 141.739 1780.71 144.843C1775.98 147.947 1772.36 152.454 1769.85 158.365C1767.34 164.277 1766.08 171.445 1766.08 179.868C1766.08 192.578 1768.89 202.48 1774.51 209.573C1780.12 216.519 1787.96 219.992 1798 219.992C1806.87 219.992 1814.04 217.849 1819.51 213.564C1824.98 209.278 1827.93 203.219 1828.37 195.386H1850.99C1849.66 209.13 1844.19 219.919 1834.58 227.751C1824.98 235.584 1812.78 239.5 1798 239.5C1787.22 239.5 1777.68 237.062 1769.41 232.185C1761.28 227.16 1754.93 220.214 1750.34 211.347C1745.76 202.332 1743.47 191.839 1743.47 179.868ZM1869.39 179.868C1869.39 167.898 1871.68 157.479 1876.26 148.612C1880.84 139.744 1887.19 132.872 1895.32 127.995C1903.6 123.118 1913.2 120.68 1924.14 120.68C1935.08 120.68 1944.61 123.118 1952.74 127.995C1961.01 132.872 1967.37 139.744 1971.8 148.612C1976.38 157.479 1978.67 167.898 1978.67 179.868C1978.67 191.839 1976.38 202.332 1971.8 211.347C1967.37 220.214 1961.01 227.16 1952.74 232.185C1944.61 237.062 1935.08 239.5 1924.14 239.5C1913.2 239.5 1903.6 237.062 1895.32 232.185C1887.19 227.16 1880.84 220.214 1876.26 211.347C1871.68 202.332 1869.39 191.839 1869.39 179.868ZM1956.06 179.868C1956.06 167.307 1953.25 157.553 1947.64 150.607C1942.17 143.661 1934.34 140.188 1924.14 140.188C1917.34 140.188 1911.5 141.739 1906.63 144.843C1901.9 147.947 1898.28 152.454 1895.77 158.365C1893.25 164.277 1892 171.445 1892 179.868C1892 192.578 1894.8 202.48 1900.42 209.573C1906.18 216.519 1914.09 219.992 1924.14 219.992C1930.94 219.992 1936.7 218.441 1941.43 215.337C1946.16 212.086 1949.78 207.504 1952.29 201.593C1954.81 195.534 1956.06 188.292 1956.06 179.868ZM2146.26 169.893C2146.26 159.696 2143.97 152.38 2139.39 147.947C2134.96 143.365 2128.82 141.074 2120.99 141.074C2116.12 141.074 2111.68 142.257 2107.69 144.621C2103.7 146.838 2100.52 150.016 2098.16 154.154C2095.94 158.292 2094.83 163.021 2094.83 168.341L2087.08 167.011C2087.08 157.257 2089.14 148.981 2093.28 142.183C2097.57 135.237 2102.89 129.917 2109.24 126.222C2115.6 122.527 2122.1 120.68 2128.75 120.68C2136.29 120.68 2143.01 122.379 2148.92 125.779C2154.98 129.178 2159.71 134.202 2163.11 140.853C2166.51 147.503 2168.21 155.631 2168.21 165.238V237.062H2146.26V169.893ZM2072.89 169.893C2072.89 159.696 2070.6 152.38 2066.02 147.947C2061.58 143.365 2055.45 141.074 2047.62 141.074C2042.74 141.074 2038.31 142.257 2034.32 144.621C2030.47 146.838 2027.37 150.016 2025 154.154C2022.79 158.292 2021.68 163.021 2021.68 168.341L2014.14 167.011C2014.14 157.257 2016.21 148.981 2020.35 142.183C2024.49 135.237 2029.73 129.917 2036.09 126.222C2042.44 122.527 2048.87 120.68 2055.37 120.68C2062.91 120.68 2069.64 122.379 2075.55 125.779C2081.61 129.178 2086.34 134.202 2089.74 140.853C2093.13 147.503 2094.83 155.631 2094.83 165.238V237.062H2072.89V169.893ZM1999.51 123.562H2021.68V237.062H1999.51V123.562ZM2191.26 123.562H2213.43V274.082H2191.26V123.562ZM2205.01 179.868C2205.01 170.853 2206.12 162.725 2208.33 155.484C2210.55 148.242 2213.65 142.035 2217.64 136.863C2221.78 131.69 2226.66 127.7 2232.28 124.892C2237.89 122.084 2244.17 120.68 2251.12 120.68C2261.02 120.68 2269.59 123.118 2276.83 127.995C2284.07 132.872 2289.69 139.744 2293.68 148.612C2297.82 157.479 2299.89 167.898 2299.89 179.868C2299.89 191.839 2297.82 202.332 2293.68 211.347C2289.69 220.214 2284.07 227.16 2276.83 232.185C2269.59 237.062 2261.02 239.5 2251.12 239.5C2241.96 239.5 2233.9 237.062 2226.95 232.185C2220.01 227.16 2214.61 220.214 2210.77 211.347C2206.93 202.332 2205.01 191.839 2205.01 179.868ZM2277.28 179.868C2277.28 167.307 2274.47 157.553 2268.85 150.607C2263.38 143.661 2255.55 140.188 2245.35 140.188C2238.56 140.188 2232.79 141.739 2228.06 144.843C2223.33 147.947 2219.71 152.454 2217.2 158.365C2214.69 164.277 2213.43 171.445 2213.43 179.868C2213.43 192.578 2216.24 202.48 2221.86 209.573C2227.47 216.519 2235.3 219.992 2245.35 219.992C2252.15 219.992 2257.92 218.441 2262.65 215.337C2267.37 212.086 2271 207.504 2273.51 201.593C2276.02 195.534 2277.28 188.292 2277.28 179.868ZM2342.89 190.066C2342.89 200.411 2345.26 207.948 2349.99 212.677C2354.86 217.258 2361.29 219.549 2369.27 219.549C2374.59 219.549 2379.25 218.367 2383.24 216.002C2387.38 213.49 2390.63 210.165 2392.99 206.027C2395.51 201.741 2396.76 196.864 2396.76 191.396L2404.08 192.726C2404.08 202.48 2401.93 210.904 2397.65 217.997C2393.51 225.091 2388.12 230.559 2381.47 234.402C2374.96 238.096 2368.39 239.944 2361.74 239.944C2353.76 239.944 2346.66 238.244 2340.45 234.845C2334.4 231.298 2329.59 226.199 2326.05 219.549C2322.5 212.751 2320.73 204.475 2320.73 194.721V123.562H2342.89V190.066ZM2418.71 237.062H2396.76V123.562H2418.71V237.062ZM2437.33 123.562H2499.18V141.961H2437.33V123.562ZM2499.18 217.776V237.062H2488.09C2482.48 237.062 2477.31 236.027 2472.58 233.958C2467.85 231.741 2464.08 228.342 2461.27 223.761C2458.46 219.18 2457.06 213.194 2457.06 205.805V94.0783H2479V202.923C2479 208.687 2480.04 212.603 2482.11 214.672C2484.33 216.741 2487.13 217.776 2490.53 217.776H2499.18ZM2512.48 179.868C2512.48 167.75 2514.7 157.331 2519.13 148.612C2523.56 139.892 2529.84 133.168 2537.97 128.439C2546.1 123.71 2555.63 121.345 2566.57 121.345C2577.21 121.345 2586.67 123.857 2594.94 128.882C2603.22 133.759 2609.65 140.483 2614.23 149.055C2618.96 157.627 2621.32 167.528 2621.32 178.76V185.632H2533.09V169.449H2597.83C2597.38 163.242 2595.76 157.848 2592.95 153.267C2590.14 148.538 2586.52 144.917 2582.09 142.405C2577.65 139.892 2572.55 138.636 2566.79 138.636C2559.84 138.636 2554.01 140.188 2549.28 143.291C2544.55 146.395 2541 150.976 2538.64 157.035C2536.27 162.947 2535.09 170.558 2535.09 179.868C2535.09 193.169 2537.9 203.293 2543.51 210.238C2549.13 217.037 2557.33 220.436 2568.12 220.436C2576.25 220.436 2582.75 218.662 2587.63 215.115C2592.5 211.421 2595.53 206.47 2596.72 200.263H2619.99C2617.63 212.825 2612.09 222.431 2603.37 229.081C2594.65 235.584 2582.82 238.835 2567.9 238.835C2556.67 238.835 2546.84 236.471 2538.41 231.741C2530.14 226.864 2523.71 220.066 2519.13 211.347C2514.7 202.48 2512.48 191.987 2512.48 179.868ZM2701.35 144.178H2695.59C2689.82 144.178 2684.5 145.36 2679.62 147.725C2674.9 149.942 2671.13 153.119 2668.32 157.257C2665.66 161.247 2664.33 165.903 2664.33 171.223L2656.79 169.893C2656.79 159.843 2658.71 151.198 2662.56 143.956C2666.4 136.715 2671.27 131.173 2677.19 127.33C2683.25 123.34 2689.3 121.345 2695.36 121.345H2701.35V144.178ZM2642.16 123.562H2664.33V237.062H2642.16V123.562Z" fill="currentColor"/>
</g>
<defs>
<clipPath id="clip0_132_1022">
<rect width="2698" height="358" fill="white"/>
</clipPath>
</defs>
</svg>
